<svg xmlns="http://www.w3.org/2000/svg" viewBox="0 0 513.52 515.4"><defs><style>.cls-1,.cls-4{isolation:isolate;fill:red;font-family:ArialMT, Arial;}.cls-1{font-size:12px;}.cls-2,.cls-3{fill:#fff;}.cls-2{stroke:#d3d3d3;}.cls-3{stroke:#000;}.cls-4{font-size:16px;}.cls-5,.cls-6,.cls-7,.cls-8{fill:none;}.cls-5{stroke:red;}.cls-6{stroke:blue;}.cls-7{stroke:#010500;stroke-width:5px;}.cls-10,.cls-11,.cls-8,.cls-9{stroke:#0a0101;stroke-width:10px;}.cls-9{fill:#ffff08;}.cls-11{fill:#ffff06;}</style></defs><g id="圖層_1" data-name="圖層 1"><text class="cls-1" transform="translate(3.5 13.5)">0</text><path class="cls-2" d="M256,64H512" transform="translate(1.5 1.5)"/><text class="cls-1" transform="translate(3.5 69.5)">64</text><path class="cls-2" d="M256,128H512" transform="translate(1.5 1.5)"/><path class="cls-2" d="M256,192H512" transform="translate(1.5 1.5)"/><text class="cls-1" transform="translate(3.5 197.5)">192</text><path class="cls-2" d="M256,256H512" transform="translate(1.5 1.5)"/><text class="cls-1" transform="translate(3.5 261.5)">256</text><path class="cls-2" d="M256,320H512" transform="translate(1.5 1.5)"/><text class="cls-1" transform="translate(3.5 325.5)">320</text><path class="cls-2" d="M256,384H512" transform="translate(1.5 1.5)"/><text class="cls-1" transform="translate(3.5 389.5)">384</text><path class="cls-2" d="M256,448H512" transform="translate(1.5 1.5)"/><text class="cls-1" transform="translate(3.5 453.5)">448</text><text class="cls-1" transform="translate(3.5 511.5)">512</text><path class="cls-2" d="M64,0V512" transform="translate(1.5 1.5)"/><text class="cls-1" transform="translate(59.5 13.5)">64</text><path class="cls-2" d="M128,0V512" transform="translate(1.5 1.5)"/><text class="cls-1" transform="translate(119.5 13.5)">128</text><path class="cls-2" d="M195,0V512" transform="translate(1.5 1.5)"/><text class="cls-1" transform="translate(187.5 13.5)">192</text><path class="cls-2" d="M256,0V512" transform="translate(1.5 1.5)"/><text class="cls-1" transform="translate(247.5 13.5)">256</text><path class="cls-2" d="M320,0V512" transform="translate(1.5 1.5)"/><text class="cls-1" transform="translate(311.5 13.5)">320</text><path class="cls-2" d="M384,0V512" transform="translate(1.5 1.5)"/><text class="cls-1" transform="translate(375.5 13.5)">384</text><path class="cls-2" d="M448,0V512" transform="translate(1.5 1.5)"/><text class="cls-1" transform="translate(439.5 13.5)">448</text><text class="cls-1" transform="translate(493.5 13.5)">512</text><path class="cls-3" d="M256,256V242m0,14H242" transform="translate(1.5 1.5)"/><text class="cls-4" transform="translate(219.03 251.5)">(256, 256)</text><circle id="c1" class="cls-5" cx="457.5" cy="257.5" r="1"/><circle id="c2" class="cls-5" cx="57.5" cy="257.5" r="1"/><circle class="cls-6" cx="1.5" cy="1.5" r="1"/><line class="cls-7" x1="50.19" y1="322" x2="115.9" y2="322"/><line class="cls-7" x1="65.19" y1="380.87" x2="130.9" y2="380.87"/><line class="cls-7" x1="50.19" y1="352.1" x2="115.9" y2="352.1"/><line class="cls-7" x1="406.65" y1="324.06" x2="472.35" y2="324.06"/><line class="cls-7" x1="393.65" y1="382.94" x2="459.35" y2="382.94"/><line class="cls-7" x1="406.65" y1="354.16" x2="472.35" y2="354.16"/></g><g id="圖層_2" data-name="圖層 2"><ellipse class="cls-8" cx="258.23" cy="268.35" rx="198.27" ry="149.54"/><polyline class="cls-8" points="98.53 181.5 116.65 94.64 184.48 129.5"/><polyline class="cls-8" points="430.84 188.87 423.65 94.64 359.84 141.76"/><ellipse class="cls-9" cx="259" cy="335.44" rx="17.77" ry="9.94"/><ellipse class="cls-10" cx="363.13" cy="308.75" rx="17.75" ry="20.77"/><ellipse class="cls-10" cx="156.74" cy="308.75" rx="17.75" ry="20.77"/><circle class="cls-11" cx="365.02" cy="155.57" r="34.07"/><circle class="cls-11" cx="418.33" cy="188.87" r="21.13"/><circle class="cls-11" cx="316.99" cy="129.5" r="19.53"/></g></svg>