<?xml version="1.0" encoding="utf-8"?>
<!-- Generator: Adobe Illustrator 26.0.2, SVG Export Plug-In . SVG Version: 6.00 Build 0)  -->
<svg version="1.1" xmlns="http://www.w3.org/2000/svg" xmlns:xlink="http://www.w3.org/1999/xlink" x="0px" y="0px"
	 viewBox="0 0 512 512" style="enable-background:new 0 0 512 512;" xml:space="preserve">
<style type="text/css">
	.st0{fill:#FF0000;}
	.st1{font-family:'ArialMT';}
	.st2{font-size:12px;}
	.st3{fill:#FFFFFF;stroke:#D3D3D3;}
	.st4{fill:#FFFFFF;stroke:#000000;}
	.st5{font-size:16px;}
	.st6{fill:none;stroke:#FF0000;}
	.st7{fill:none;stroke:#0000FF;}
	.st8{fill:none;stroke:#010500;stroke-width:5;}
	.st9{fill:none;stroke:#0A0101;stroke-width:10;}
	.st10{fill:#FFFF08;stroke:#0A0101;stroke-width:10;}
	.st11{stroke:#0A0101;stroke-width:10;}
	.st12{fill:#FFFF06;stroke:#0A0101;stroke-width:10;}
</style>
<g id="圖層_1">
	<text transform="matrix(1 0 0 1 2 12)" class="st0 st1 st2">0</text>
	<path class="st3" d="M256,64H0h512"/>
	<text transform="matrix(1 0 0 1 2 68)" class="st0 st1 st2">64</text>
	<path class="st3" d="M256,128H0h512"/>
	<text transform="matrix(1 0 0 1 2 132)" class="st0 st1 st2">128</text>
	<path class="st3" d="M256,192H0h512"/>
	<text transform="matrix(1 0 0 1 2 196)" class="st0 st1 st2">192</text>
	<path class="st3" d="M256,256H0h512"/>
	<text transform="matrix(1 0 0 1 2 260)" class="st0 st1 st2">256</text>
	<path class="st3" d="M256,320H0h512"/>
	<text transform="matrix(1 0 0 1 2 324)" class="st0 st1 st2">320</text>
	<path class="st3" d="M256,384H0h512"/>
	<text transform="matrix(1 0 0 1 2 388)" class="st0 st1 st2">384</text>
	<path class="st3" d="M256,448H0h512"/>
	<text transform="matrix(1 0 0 1 2 452)" class="st0 st1 st2">448</text>
	<text transform="matrix(1 0 0 1 2 510)" class="st0 st1 st2">512</text>
	<path class="st3" d="M64,0v512"/>
	<text transform="matrix(1 0 0 1 58 12)" class="st0 st1 st2">64</text>
	<path class="st3" d="M128,0v512"/>
	<text transform="matrix(1 0 0 1 118 12)" class="st0 st1 st2">128</text>
	<path class="st3" d="M195,0v512"/>
	<text transform="matrix(1 0 0 1 186 12)" class="st0 st1 st2">192</text>
	<path class="st3" d="M256,0v512"/>
	<text transform="matrix(1 0 0 1 246 12)" class="st0 st1 st2">256</text>
	<path class="st3" d="M320,0v512"/>
	<text transform="matrix(1 0 0 1 310 12)" class="st0 st1 st2">320</text>
	<path class="st3" d="M384,0v512"/>
	<text transform="matrix(1 0 0 1 374 12)" class="st0 st1 st2">384</text>
	<path class="st3" d="M448,0v512"/>
	<text transform="matrix(1 0 0 1 438 12)" class="st0 st1 st2">448</text>
	<text transform="matrix(1 0 0 1 492 12)" class="st0 st1 st2">512</text>
	<path class="st4" d="M256,256v14v-28 M256,256h14h-28"/>
	<text transform="matrix(1 0 0 1 217.5312 250)" class="st0 st1 st5">(256, 256)</text>
	<circle id="c1" class="st6" cx="456" cy="256" r="1">
	
		<animate  accumulate="none" additive="replace" attributeName="r" calcMode="linear" dur="2s" fill="remove" repeatCount="indefinite" restart="always" to="10">
		</animate>
	</circle>
	<circle id="c2" class="st6" cx="56" cy="256" r="1">
	
		<animate  accumulate="none" additive="replace" attributeName="r" calcMode="linear" dur="2s" fill="remove" repeatCount="indefinite" restart="always" to="10">
		</animate>
	</circle>
	<circle class="st7" cx="0" cy="0" r="1">
	
		<animateMotion  accumulate="none" additive="replace" calcMode="paced" dur="6s" fill="remove" path="M456 256 A200 140, 0, 0, 0, 56 256" repeatCount="indefinite" restart="always" rotate="auto">
		</animateMotion>
	
		<animate  accumulate="none" additive="replace" attributeName="r" calcMode="linear" dur="6s" fill="remove" repeatCount="indefinite" restart="always" to="15">
		</animate>
	</circle>
	<line class="st8" x1="48.7" y1="320.5" x2="114.4" y2="320.5"/>
	<line class="st8" x1="63.7" y1="379.4" x2="129.4" y2="379.4"/>
	<line class="st8" x1="48.7" y1="350.6" x2="114.4" y2="350.6"/>
	<line class="st8" x1="405.1" y1="322.6" x2="470.9" y2="322.6"/>
	<line class="st8" x1="392.1" y1="381.4" x2="457.9" y2="381.4"/>
	<line class="st8" x1="405.1" y1="352.7" x2="470.9" y2="352.7"/>
</g>
<g id="圖層_2">
	<ellipse class="st9" cx="256.7" cy="266.8" rx="198.3" ry="149.5"/>
	<polyline class="st9" points="97,180 115.2,93.1 183,128 	"/>
	<polyline class="st9" points="429.3,187.4 422.1,93.1 358.3,140.3 	"/>
	<ellipse class="st10" cx="257.5" cy="333.9" rx="17.8" ry="9.9"/>
	<ellipse class="st11" cx="368.2" cy="316.5" rx="9.8" ry="11.5"/>
	<ellipse class="st11" cx="147.5" cy="316.4" rx="10" ry="11.7"/>
	<circle class="st12" cx="363.5" cy="154.1" r="34.1"/>
	<circle class="st12" cx="416.8" cy="187.4" r="21.1"/>
	<circle class="st12" cx="315.5" cy="128" r="19.5"/>
</g>
</svg>
