<?xml version="1.0" encoding="utf-8"?>
<!-- Generator: Adobe Illustrator 26.0.2, SVG Export Plug-In . SVG Version: 6.00 Build 0)  -->
<svg version="1.1" id="h" xmlns="http://www.w3.org/2000/svg" xmlns:xlink="http://www.w3.org/1999/xlink" x="0px" y="0px"
	 viewBox="0 0 512 512" style="enable-background:new 0 0 512 512;" xml:space="preserve">
<style type="text/css">
	.st0{fill:#30ADF9;stroke:#000000;stroke-width:6;stroke-linecap:round;stroke-linejoin:round;}
	.st1{fill:#FFFFFF;stroke:#000000;stroke-width:6;stroke-linecap:round;stroke-linejoin:round;}
	.st2{fill:none;}
	.st3{fill:none;stroke:#FF0000;stroke-width:10;}
	.st4{fill:#FFFFFF;stroke:#000000;stroke-width:4;stroke-linecap:round;stroke-linejoin:round;}
	.st5{fill:#FF0000;stroke:#000000;stroke-width:4;stroke-linecap:round;stroke-linejoin:round;}
	.st6{stroke:#000000;stroke-width:4;stroke-linecap:round;stroke-linejoin:round;}
	.st7{fill:none;stroke:#000000;stroke-width:4;stroke-linecap:round;stroke-linejoin:round;}
</style>
<ellipse class="st0" cx="256" cy="255.4" rx="188.6" ry="192.6"/>
<g>
	<circle class="st1" cx="260.2" cy="306.4" r="141.6"/>
</g>
<path class="st2" d="z"/>
<path class="st3" d="M0,842.9"/>
<circle class="st4" cx="210.3" cy="189.5" r="45.7"/>
<circle class="st4" cx="301.7" cy="185.2" r="45.7"/>
<circle class="st5" cx="259.1" cy="231" r="20.9"/>
<path class="st5" d="M144.2,302.8c0,0,110.5,182.7,223.5,0C144.2,302.8,144.2,302.8,144.2,302.8z"/>
<ellipse class="st6" cx="229.8" cy="181.2" rx="8.2" ry="11.8"/>
<ellipse class="st6" cx="282.7" cy="180.2" rx="8.2" ry="11.8"/>
<line class="st7" x1="384" y1="257.8" x2="481.4" y2="235.2"/>
<line class="st7" x1="389.3" y1="298.6" x2="482.2" y2="293.3"/>
<line class="st7" x1="381" y1="329.5" x2="477.7" y2="347.7"/>
<line class="st7" x1="145.7" y1="272.8" x2="48.3" y2="250.2"/>
<line class="st7" x1="140.4" y1="313.6" x2="47.5" y2="308.3"/>
<line class="st7" x1="148.7" y1="344.5" x2="52.1" y2="362.7"/>
</svg>
