<svg id="h" xmlns="http://www.w3.org/2000/svg" viewBox="0 0 513.52 515.4"><defs><style>.cls-1{isolation:isolate;font-size:12px;font-family:ArialMT, Arial;}.cls-1,.cls-10{fill:red;}.cls-2,.cls-3,.cls-6,.cls-9{fill:#fff;}.cls-2{stroke:#d3d3d3;}.cls-10,.cls-11,.cls-12,.cls-3,.cls-5,.cls-6,.cls-9{stroke:#000;}.cls-12,.cls-4,.cls-7,.cls-8{fill:none;}.cls-4{stroke:blue;}.cls-5{fill:#30adf9;}.cls-10,.cls-11,.cls-12,.cls-5,.cls-6,.cls-9{stroke-linecap:round;stroke-linejoin:round;}.cls-5,.cls-6{stroke-width:6px;}.cls-8{stroke:red;stroke-width:10px;}.cls-10,.cls-11,.cls-12,.cls-9{stroke-width:4px;}</style></defs><g id="圖層_1" data-name="圖層 1"><text class="cls-1" transform="translate(3.5 13.5)">0</text><path class="cls-2" d="M256,64H512" transform="translate(1.5 1.5)"/><text class="cls-1" transform="translate(3.5 69.5)">64</text><path class="cls-2" d="M256,128H512" transform="translate(1.5 1.5)"/><text class="cls-1" transform="translate(3.5 133.5)">128</text><path class="cls-2" d="M256,192H512" transform="translate(1.5 1.5)"/><text class="cls-1" transform="translate(3.5 197.5)">192</text><path class="cls-2" d="M256,256H512" transform="translate(1.5 1.5)"/><text class="cls-1" transform="translate(3.5 261.5)">256</text><path class="cls-2" d="M256,320H512" transform="translate(1.5 1.5)"/><text class="cls-1" transform="translate(3.5 325.5)">320</text><path class="cls-2" d="M256,384H512" transform="translate(1.5 1.5)"/><text class="cls-1" transform="translate(3.5 389.5)">384</text><path class="cls-2" d="M256,448H512" transform="translate(1.5 1.5)"/><text class="cls-1" transform="translate(3.5 453.5)">448</text><text class="cls-1" transform="translate(3.5 511.5)">512</text><path class="cls-2" d="M64,0V512" transform="translate(1.5 1.5)"/><text class="cls-1" transform="translate(59.5 13.5)">64</text><path class="cls-2" d="M128,0V512" transform="translate(1.5 1.5)"/><text class="cls-1" transform="translate(119.5 13.5)">128</text><path class="cls-2" d="M195,0V512" transform="translate(1.5 1.5)"/><text class="cls-1" transform="translate(187.5 13.5)">192</text><path class="cls-2" d="M256,0V512" transform="translate(1.5 1.5)"/><text class="cls-1" transform="translate(247.5 13.5)">256</text><path class="cls-2" d="M320,0V512" transform="translate(1.5 1.5)"/><text class="cls-1" transform="translate(311.5 13.5)">320</text><path class="cls-2" d="M384,0V512" transform="translate(1.5 1.5)"/><text class="cls-1" transform="translate(375.5 13.5)">384</text><path class="cls-2" d="M448,0V512" transform="translate(1.5 1.5)"/><text class="cls-1" transform="translate(439.5 13.5)">448</text><text class="cls-1" transform="translate(493.5 13.5)">512</text><path class="cls-3" d="M256,256V242m0,14H242" transform="translate(1.5 1.5)"/><circle class="cls-4" cx="1.5" cy="1.5" r="1"/></g><ellipse class="cls-5" cx="257.5" cy="256.88" rx="188.62" ry="192.62"/><circle class="cls-6" cx="261.69" cy="307.94" r="141.56"/><path class="cls-7" transform="translate(1.5 1.5)"/><path class="cls-8" d="M0,842.89" transform="translate(1.5 1.5)"/><circle class="cls-9" cx="211.77" cy="191.01" r="45.73"/><circle class="cls-9" cx="303.23" cy="186.74" r="45.73"/><circle class="cls-10" cx="260.58" cy="232.47" r="20.86"/><path class="cls-10" d="M144.23,302.82s110.47,182.65,223.54,0Z" transform="translate(1.5 1.5)"/><ellipse class="cls-11" cx="231.25" cy="182.75" rx="8.21" ry="11.75"/><ellipse class="cls-11" cx="284.23" cy="181.75" rx="8.21" ry="11.75"/><line class="cls-12" x1="385.52" y1="259.28" x2="482.95" y2="236.74"/><line class="cls-12" x1="390.81" y1="300.07" x2="483.7" y2="294.78"/><line class="cls-12" x1="382.5" y1="331.03" x2="479.17" y2="349.16"/><line class="cls-12" x1="147.22" y1="274.28" x2="49.79" y2="251.73"/><line class="cls-12" x1="141.93" y1="315.07" x2="49.04" y2="309.78"/><line class="cls-12" x1="150.24" y1="346.03" x2="53.57" y2="364.16"/></svg>