<?xml version="1.0" encoding="utf-8"?>
<!-- Generator: Adobe Illustrator 26.0.2, SVG Export Plug-In . SVG Version: 6.00 Build 0)  -->
<svg version="1.1" id="Layer_1" xmlns="http://www.w3.org/2000/svg" xmlns:xlink="http://www.w3.org/1999/xlink" x="0px" y="0px"
	 viewBox="0 0 1000 1000" style="enable-background:new 0 0 1000 1000;" xml:space="preserve">
<style type="text/css">
	.st0{fill:#0F8BA8;stroke:#000000;stroke-miterlimit:10;}
	.st1{fill:#0F8BA8;stroke:#000000;stroke-width:4;stroke-miterlimit:10;}
	.st2{fill:#FFFFFF;stroke:#000000;stroke-linecap:round;stroke-linejoin:round;stroke-miterlimit:10;}
	.st3{fill:#FFFFFF;}
	.st4{fill:#010A0C;stroke:#FFFFFF;stroke-miterlimit:10;}
	.st5{fill:#FFFFFF;stroke:#000000;stroke-width:1;stroke-linecap:round;stroke-linejoin:round;stroke-miterlimit:10.0002;}
	.st6{fill:#35382E;}
	.st7{fill:none;stroke:#000000;stroke-miterlimit:10;}
	.st8{stroke:#000000;stroke-miterlimit:10;}
	.st9{fill:#06308C;stroke:#06308C;stroke-width:14;stroke-miterlimit:10;}
	.st10{fill:#599EF3;}
	.st11{fill:#3162BF;}
	.st12{fill:#F0FF2E;}
	.st13{fill:#F9FF00;}
	.st14{display:none;}
	.st15{display:inline;}
	.st16{display:inline;fill:none;stroke:#000000;stroke-miterlimit:10;}
</style>
<g id="illustration">
	<path class="st0" d="M711.6,312.7c64.5,8.6,113.3,11.5,158.7,12.1s42.4-34.2,5.3-39.5c-37.1-5.3-114.5-11.5-162.2-14.2L711.6,312.7
		z"/>
	<path class="st1" d="M546.5,273.1l44.2-43.4c0,0-1.6,21-6.5,26.7c-4.9,5.8,29.9-26.7,29.9-26.7l-5,14.5l38-14.5l-11.4,21.7l40-11.2
		l-18.8,11.2l35.9-3.9l-15.5,8.9l42.5-5l-11.4,10.2l12.6,2.2l-5.2,45v13.1l-130.9-8.7l-33.1-5.2L546.5,273.1z"/>
	<path class="st1" d="M454.2,276.7l-40.9-40.1c0,0,1.5,19.4,6,24.7c4.5,5.3-27.7-24.7-27.7-24.7l4.7,13.4l-35.1-13.4l10.6,20.1
		l-37-10.4l17.4,10.4l-33.2-3.6l14.3,8.3l-39.3-4.7l10.6,9.4l-11.6,2l4.8,41.6v12.1l121.1-8l30.7-4.8L454.2,276.7z"/>
	<path class="st0" d="M845.7,320.6l17-6.8c0,0,6.1,5.5,13,11.2s-4.7,18.4-15.3,10.6C849.7,327.8,845.7,320.6,845.7,320.6z"/>
	<path class="st0" d="M292.9,268.1c-47.7,2.7-123.1,8.9-160.2,14.2c-37.1,5.3-40.1,40.1,5.3,39.5s95.2-3.5,159.7-12.1L292.9,268.1z"
		/>
	<path class="st0" d="M157.5,320.6l-17-6.8c0,0-6.1,5.5-13,11.2s4.7,18.4,15.3,10.6C153.5,327.8,157.5,320.6,157.5,320.6z"/>
	<path class="st0" d="M525.2,778.2v93.4c0,97.4,55.4,100.4,55.4,9V777.2L525.2,778.2z"/>
	<path class="st0" d="M421.9,772.9v96.3c0,100.4,55.4,103.5,55.4,9.3V771.9L421.9,772.9z"/>
	<path class="st2" d="M380.4,494.4c0-47.3,6-116.9,31.1-167.4c8.4-16.8,18.9-31.5,32-42.5c15.7-13.2,35.3-21.2,59.4-21.2
		c26.1,0,46.9,9.2,63.4,24.3c10.3,9.4,19,21.2,26.2,34.4C620,372.4,627,444.5,627,494.4H380.4L380.4,494.4z"/>
	<ellipse class="st3" cx="502.8" cy="298.7" rx="22" ry="16.3"/>
	<path class="st0" d="M491.4,236.4h20.9c0,0,4.3,47.5,5.7,64c-2.1,6.8-9.1,8-15.5,7.8c-8.2-0.1-15.9-3.3-17.1-8.8L491.4,236.4z"/>
	<path class="st0" d="M491.4,236.4h20.9c1.9,12.6-21.6,59.4-26.8,59.4L491.4,236.4z"/>
	<circle class="st2" cx="498.1" cy="171.6" r="52.2"/>
	<path class="st4" d="M476.4,60.3l-40.5,15.3l48.9,12.8c0,0-19.9,1.5-14.3,11.7c32.2,32.2,65.5,1.2,65.5,1.2s-4.6-14.1-18.8-13.3
		c47.3-13.1,47.3-13.1,47.3-13.1l-63.9-22.2L476.4,60.3z"/>
	<path class="st1" d="M391.6,97.5c0,0,108-11.6,112,20.9c5.5-33.3,90.4-25.7,90.4-25.7l-29.5,17.9c0,0,46.7,7.8,38,24.5
		c-0.8,1.5-49.8-17.5-67,0.3L508,177.5l-22.5,0.8c0,0-37.6-55.8-78.1-44.6c-31.3,8.7,39.1-24.3,39.1-24.3L391.6,97.5z"/>
	
		<ellipse transform="matrix(0.3162 -0.9487 0.9487 0.3162 200.1116 607.8888)" class="st5" cx="521.8" cy="165.1" rx="18.1" ry="18.1"/>
	<circle class="st2" cx="476.1" cy="164.1" r="17"/>
	<g>
		<circle id="leftBrow1_1_" cx="530.4" cy="148.8" r="0.8"/>
		<circle id="leftBrow4_1_" cx="506.8" cy="150.9" r="0.8"/>
		<circle id="leftBrow3_1_" cx="516.8" cy="147.7" r="0.8"/>
		<circle id="leftBrow0_1_" cx="534.4" cy="151.7" r="0.8"/>
		<circle id="leftBrow2_1_" cx="524.1" cy="147.3" r="0.8"/>
	</g>
	<g>
		<circle id="rightBrow1_1_" cx="466.6" cy="148.2" r="0.8"/>
		<circle id="rightBrow4_1_" cx="489.9" cy="151.2" r="0.8"/>
		<circle id="rightBrow3_1_" cx="480.1" cy="147.2" r="0.8"/>
		<circle id="rightBrow0_1_" cx="462.6" cy="151.9" r="0.8"/>
		<circle id="rightBrow2_1_" cx="472.8" cy="147.2" r="0.8"/>
	</g>
	<g>
		<circle id="Eye1" cx="499.5" cy="155.6" r="0.8"/>
		<circle id="Eye0" cx="499.5" cy="149.8" r="0.8"/>
		<circle id="Eye3" cx="499.5" cy="168.2" r="0.8"/>
		<circle id="rightEye0_00000081611257768153792440000006291407489736388532_" cx="488.8" cy="172.7" r="0.8"/>
		<circle id="rightEye1_00000042008315304097857240000008610243630418942911_" cx="494" cy="172.7" r="0.8"/>
		<circle id="Eye2" cx="499.5" cy="161.1" r="0.8"/>
		<circle id="Eye4" cx="499.5" cy="173.5" r="0.8"/>
		<circle id="leftEye0_00000004524606546506936050000004266365345592802738_" cx="509.9" cy="172.7" r="0.8"/>
		<circle id="leftEye1_00000160187646918699768190000017486383562574340286_" cx="505.1" cy="172.7" r="0.8"/>
	</g>
	<g>
		<circle id="Eye1_00000020364339390683758250000006559555728053628032_" cx="499.2" cy="154.8" r="0.8"/>
		<circle id="Eye0_00000155139215685294336890000012619826737531253689_" cx="499.2" cy="148.8" r="0.8"/>
		<circle id="Eye3_00000035491806058080377030000005696547873003789709_" cx="499.2" cy="167.7" r="0.8"/>
		<circle id="rightEye0_00000176753761161004479700000007247058655722088882_" cx="488.2" cy="172.4" r="0.8"/>
		<circle id="rightEye1_00000164486385875308376450000011540649575715265174_" cx="493.5" cy="172.4" r="0.8"/>
		<circle id="Eye2_00000057105910258195910870000017614515964939794587_" cx="499.2" cy="160.4" r="0.8"/>
		<circle id="Eye4_00000021799447803955048280000013849568676717484183_" cx="499.2" cy="173.2" r="0.8"/>
		<circle id="leftEye0_00000137810160921588989280000017315195943377107892_" cx="509.8" cy="172.4" r="0.8"/>
		<circle id="leftEye1_00000119080277420357358060000010874399258022514345_" cx="504.9" cy="172.4" r="0.8"/>
	</g>
	<path class="st6" d="M473.3,156.7c0,0-7.8-0.1-8,4.5c-0.2,4.5,2.3,4.5,2.9,5.3s0.5-6.8,10.9-4.9s11.2,2.2,11.2,2.2
		S474.4,156.6,473.3,156.7z"/>
	<path class="st6" d="M525.2,155.9c0,0,7.8-0.1,8,4.5c0.2,4.5-2.3,4.5-2.9,5.3s-0.5-6.8-10.9-4.9s-11.2,2.2-11.2,2.2
		S524.1,155.8,525.2,155.9z"/>
	<g>
		<circle id="nose1_00000006684749373908622000000016191641951720228239_" class="st7" cx="499.6" cy="156.1" r="0.8"/>
		<circle id="nose0_00000022545707968621264270000017413918354742073219_" class="st7" cx="499.6" cy="150.3" r="0.8"/>
		<circle id="nose3_00000065069542036135648760000017845787745490038917_" class="st7" cx="499.6" cy="168.7" r="0.8"/>
		<circle id="rightNose0_00000005225164740355467620000011868712767585962155_" class="st8" cx="488.9" cy="173.2" r="0.8"/>
		<circle id="rightNose1_00000004509038741366050990000009572962454979352499_" class="st8" cx="494.1" cy="173.2" r="0.8"/>
		<circle id="nose2_00000068676950634685763560000002227103371097740935_" class="st7" cx="499.6" cy="161.6" r="0.8"/>
		<circle id="nose4_00000026872080488193188870000012016461616692607163_" class="st7" cx="499.6" cy="174" r="0.8"/>
		<circle id="leftNose0_00000003100292247341161130000012550600210831956143_" class="st8" cx="510" cy="173.2" r="0.8"/>
		<circle id="leftNose1_00000168117134667346052700000008181593255620332983_" class="st8" cx="505.2" cy="173.2" r="0.8"/>
		<polygon class="st0" points="498.8,161.6 485.5,178.3 498.4,194.2 510.8,177.9 		"/>
	</g>
	<path class="st9" d="M407.5,448.4c0-0.9,0.5-1.6,1.4-2.3c1-0.7,2.4-1.4,4.5-2.1c6-2,10.4-5.5,13.2-10.6c2.9-5.1,4.4-12.9,4.4-23.4
		h-18.8c-2.9,0-4.3-1.1-4.3-3.4s1.4-3.5,4.3-3.5H480c2.8,0,4.2,1.1,4.2,3.4s-1.4,3.5-4.2,3.5h-21.9v30c0,1.9,0.7,3.1,2.2,3.5
		c1.3,0.3,3.8,0.5,7.5,0.5c4.5,0,7.2-0.5,8.1-1.6c0.9-0.9,1.3-2.8,1.4-5.5c0.1-2.8,1.4-4.2,3.7-4.2c1.3,0,2.2,0.3,2.9,0.9
		c0.6,0.6,1,1.5,1,2.9c0,5.2-1,9-2.9,11.3c-2.1,2-7.4,3-15.7,3c-6,0-9.9-0.3-11.7-1c-2.4-0.9-3.5-3.1-3.5-6.6v-33.1h-13.2l-0.1,3.8
		c-0.2,7.8-1.5,14.7-4,20.5c-2.3,5.5-5.9,9.9-10.7,13.1c-4.9,3.2-8.9,4.8-12,4.8C408.7,452.3,407.5,451,407.5,448.4z"/>
	<path class="st9" d="M416.3,382.3c0-2.3,1.4-3.5,4.3-3.5h51c2.8,0,4.2,1.2,4.2,3.5c0,2.2-1.4,3.4-4.2,3.4h-51
		C417.7,385.7,416.3,384.6,416.3,382.3z"/>
	<path class="st9" d="M504.1,428.3c0-0.8,0.4-1.5,1.1-2.2s1.8-1.4,3.3-2.2c17.2-8.4,26.9-22,29-40.8h-28.2c-1.5,0-2.6-0.3-3.3-0.9
		c-0.7-0.6-1.1-1.5-1.1-2.7s0.4-2.1,1.1-2.6s1.8-0.8,3.3-0.8h29c0.3-2.6,0.4-8.3,0.4-17.1c0-2.9,1.2-4.4,3.5-4.4
		c1.3,0,2.2,0.4,2.9,1.2c0.6,0.8,1,1.9,1,3.2c0,3.5-0.1,9.2-0.4,17.1H577c2.9,0,4.4,1.2,4.4,3.5c0,2.4-1.5,3.5-4.4,3.5h-30.5
		c2.1,8.4,5.9,16,11.5,23c5.7,7,12.7,12.8,21,17.2c2.1,1.2,3.2,2.6,3.2,4.2c0,2.8-1.3,4.2-3.9,4.2c-0.6,0-1.8-0.5-3.5-1.5
		s-4.2-2.6-7.6-4.9c-5.7-3.9-10.6-8.7-14.8-14.5c-4.4-6.1-7.5-12.1-9.3-18c-4.1,15.3-12.8,27-26,35.1c-4.4,2.7-7.5,4.1-9.4,4.1
		C505.3,432.2,504.1,430.9,504.1,428.3z"/>
	<path class="st1" d="M427.4,494.4c0,0-155.8,209.7-126.2,299.1c29.6,89.4,29.6,89.4,29.6,89.4l51.9-88.5l57.6,88.5l55.1-85.9
		l59.5,80.5l34.3-79.6l47.4,85l34.1-82.3l38,82.3l15.6-85.9c0,0-102.9-302.7-150.5-302.7C427.4,494.4,427.4,494.4,427.4,494.4z"/>
	<path class="st10" d="M171.5,242.4l-32.9,84.4c-0.2,0.5-0.8,0.8-1.4,0.6l-67.4-26.3c-0.5-0.2-0.8-0.8-0.6-1.4l32.9-84.4
		c0.2-0.5,0.8-0.8,1.4-0.6l67.4,26.3C171.5,241.2,171.8,241.9,171.5,242.4z"/>
	<path class="st11" d="M171.5,242l-32.9,84.4c-0.2,0.5-0.8,0.8-1.4,0.6l-67.4-26.3c-0.5-0.2-0.8-0.8-0.6-1.4l0,0
		c2.7-7,7.7-13,14.2-16.9l67.4-41c5.5-3.3,12.2-3.9,18.2-1.6l1.9,0.8C171.5,240.8,171.8,241.4,171.5,242z"/>
	<path class="st3" d="M158.8,251.8l-3.2,8.3c-0.9,2.3-3.4,3.4-5.7,2.5l-47.2-18.4c-2.3-0.9-3.4-3.4-2.5-5.7l3.2-8.3
		c0.9-2.3,3.4-3.4,5.7-2.5l47.2,18.4C158.6,247,159.7,249.6,158.8,251.8z"/>
	<path class="st3" d="M101.2,255.1l-2.7-1c-1.6-0.6-2.4-2.4-1.8-4l0.1-0.2c0.6-1.6,2.4-2.4,4-1.8l2.7,1c1.6,0.6,2.4,2.4,1.8,4
		l-0.1,0.2C104.5,255,102.8,255.7,101.2,255.1z"/>
	<path class="st3" d="M111.3,259.4l-2.7-1c-1.6-0.6-2.4-2.4-1.8-4l0.1-0.2c0.6-1.6,2.4-2.4,4-1.8l2.7,1c1.6,0.6,2.4,2.4,1.8,4
		l-0.1,0.2C114.7,259.2,112.9,260,111.3,259.4z"/>
	<path class="st3" d="M121.7,263.3l-2.7-1c-1.6-0.6-2.4-2.4-1.8-4l0.1-0.2c0.6-1.6,2.4-2.4,4-1.8l2.7,1c1.6,0.6,2.4,2.4,1.8,4
		l-0.1,0.2C125.1,263.1,123.3,263.9,121.7,263.3z"/>
	<path class="st3" d="M131.9,267.5l-2.7-1c-1.6-0.6-2.4-2.4-1.8-4l0.1-0.2c0.6-1.6,2.4-2.4,4-1.8l2.7,1c1.6,0.6,2.4,2.4,1.8,4
		l-0.1,0.2C135.2,267.4,133.4,268.1,131.9,267.5z"/>
	<path class="st3" d="M142.3,271.7l-2.7-1c-1.6-0.6-2.4-2.4-1.8-4l0.1-0.2c0.6-1.6,2.4-2.4,4-1.8l2.7,1c1.6,0.6,2.4,2.4,1.8,4
		l-0.1,0.2C145.6,271.5,143.8,272.3,142.3,271.7z"/>
	<path class="st12" d="M152.4,276l-2.7-1c-1.6-0.6-2.4-2.4-1.8-4l0.1-0.2c0.6-1.6,2.4-2.4,4-1.8l2.7,1c1.6,0.6,2.4,2.4,1.8,4
		l-0.1,0.2C155.7,275.8,154,276.6,152.4,276z"/>
	<path class="st3" d="M97.8,263.7l-2.7-1c-1.6-0.6-2.4-2.4-1.8-4l0.1-0.2c0.6-1.6,2.4-2.4,4-1.8l2.7,1c1.6,0.6,2.4,2.4,1.8,4
		l-0.1,0.2C101.2,263.5,99.4,264.3,97.8,263.7z"/>
	<path class="st3" d="M107.9,267.9l-2.7-1c-1.6-0.6-2.4-2.4-1.8-4l0.1-0.2c0.6-1.6,2.4-2.4,4-1.8l2.7,1c1.6,0.6,2.4,2.4,1.8,4
		l-0.1,0.2C111.3,267.8,109.5,268.5,107.9,267.9z"/>
	<path class="st3" d="M118.4,271.8l-2.7-1c-1.6-0.6-2.4-2.4-1.8-4l0.1-0.2c0.6-1.6,2.4-2.4,4-1.8l2.7,1c1.6,0.6,2.4,2.4,1.8,4
		l-0.1,0.2C121.8,271.7,120,272.5,118.4,271.8z"/>
	<path class="st3" d="M128.5,276.1l-2.7-1c-1.6-0.6-2.4-2.4-1.8-4l0.1-0.2c0.6-1.6,2.4-2.4,4-1.8l2.7,1c1.6,0.6,2.4,2.4,1.8,4
		l-0.1,0.2C131.9,275.9,130.1,276.7,128.5,276.1z"/>
	<path class="st3" d="M138.9,280.3l-2.7-1c-1.6-0.6-2.4-2.4-1.8-4l0.1-0.2c0.6-1.6,2.4-2.4,4-1.8l2.7,1c1.6,0.6,2.4,2.4,1.8,4
		l-0.1,0.2C142.3,280.1,140.5,280.9,138.9,280.3z"/>
	<path class="st3" d="M149,284.5l-2.7-1c-1.6-0.6-2.4-2.4-1.8-4l0.1-0.2c0.6-1.6,2.4-2.4,4-1.8l2.7,1c1.6,0.6,2.4,2.4,1.8,4
		l-0.1,0.2C152.4,284.3,150.6,285.1,149,284.5z"/>
	<path class="st3" d="M94.2,271.6l-2.7-1c-1.6-0.6-2.4-2.4-1.8-4l0.1-0.2c0.6-1.6,2.4-2.4,4-1.8l2.7,1c1.6,0.6,2.4,2.4,1.8,4
		l-0.1,0.2C97.6,271.5,95.8,272.3,94.2,271.6z"/>
	<path class="st3" d="M104.3,275.9l-2.7-1c-1.6-0.6-2.4-2.4-1.8-4l0.1-0.2c0.6-1.6,2.4-2.4,4-1.8l2.7,1c1.6,0.6,2.4,2.4,1.8,4
		l-0.1,0.2C107.7,275.7,105.9,276.5,104.3,275.9z"/>
	<path class="st3" d="M114.8,279.8l-2.7-1c-1.6-0.6-2.4-2.4-1.8-4l0.1-0.2c0.6-1.6,2.4-2.4,4-1.8l2.7,1c1.6,0.6,2.4,2.4,1.8,4
		l-0.1,0.2C118.1,279.6,116.4,280.4,114.8,279.8z"/>
	<path class="st3" d="M124.9,284l-2.7-1c-1.6-0.6-2.4-2.4-1.8-4l0.1-0.2c0.6-1.6,2.4-2.4,4-1.8l2.7,1c1.6,0.6,2.4,2.4,1.8,4
		l-0.1,0.2C128.3,283.9,126.5,284.7,124.9,284z"/>
	<path class="st3" d="M135.3,288.2l-2.7-1c-1.6-0.6-2.4-2.4-1.8-4l0.1-0.2c0.6-1.6,2.4-2.4,4-1.8l2.7,1c1.6,0.6,2.4,2.4,1.8,4
		l-0.1,0.2C138.7,288.1,136.9,288.8,135.3,288.2z"/>
	<path class="st3" d="M145.4,292.5l-2.7-1c-1.6-0.6-2.4-2.4-1.8-4l0.1-0.2c0.6-1.6,2.4-2.4,4-1.8l2.7,1c1.6,0.6,2.4,2.4,1.8,4
		l-0.1,0.2C148.8,292.3,147,293.1,145.4,292.5z"/>
	<path class="st3" d="M90.2,281l-2.7-1c-1.6-0.6-2.4-2.4-1.8-4l0.1-0.2c0.6-1.6,2.4-2.4,4-1.8l2.7,1c1.6,0.6,2.4,2.4,1.8,4l-0.1,0.2
		C93.6,280.9,91.8,281.6,90.2,281z"/>
	<path class="st3" d="M100.3,285.3l-2.7-1c-1.6-0.6-2.4-2.4-1.8-4l0.1-0.2c0.6-1.6,2.4-2.4,4-1.8l2.7,1c1.6,0.6,2.4,2.4,1.8,4
		l-0.1,0.2C103.7,285.1,101.9,285.9,100.3,285.3z"/>
	<path class="st3" d="M110.7,289.2l-2.7-1c-1.6-0.6-2.4-2.4-1.8-4l0.1-0.2c0.6-1.6,2.4-2.4,4-1.8l2.7,1c1.6,0.6,2.4,2.4,1.8,4
		l-0.1,0.2C114.1,289,112.3,289.8,110.7,289.2z"/>
	<path class="st3" d="M120.9,293.4l-2.7-1c-1.6-0.6-2.4-2.4-1.8-4l0.1-0.2c0.6-1.6,2.4-2.4,4-1.8l2.7,1c1.6,0.6,2.4,2.4,1.8,4
		l-0.1,0.2C124.2,293.3,122.4,294,120.9,293.4z"/>
	<path class="st3" d="M131.3,297.6l-2.7-1c-1.6-0.6-2.4-2.4-1.8-4l0.1-0.2c0.6-1.6,2.4-2.4,4-1.8l2.7,1c1.6,0.6,2.4,2.4,1.8,4
		l-0.1,0.2C134.6,297.4,132.8,298.2,131.3,297.6z"/>
	<path class="st3" d="M141.4,301.9l-2.7-1c-1.6-0.6-2.4-2.4-1.8-4l0.1-0.2c0.6-1.6,2.4-2.4,4-1.8l2.7,1c1.6,0.6,2.4,2.4,1.8,4
		l-0.1,0.2C144.7,301.7,143,302.5,141.4,301.9z"/>
	<path class="st3" d="M86.3,290.4l-2.7-1c-1.6-0.6-2.4-2.4-1.8-4l0.1-0.2c0.6-1.6,2.4-2.4,4-1.8l2.7,1c1.6,0.6,2.4,2.4,1.8,4
		l-0.1,0.2C89.7,290.2,87.9,291,86.3,290.4z"/>
	<path class="st3" d="M96.4,294.6l-2.7-1c-1.6-0.6-2.4-2.4-1.8-4l0.1-0.2c0.6-1.6,2.4-2.4,4-1.8l2.7,1c1.6,0.6,2.4,2.4,1.8,4
		l-0.1,0.2C99.8,294.5,98,295.3,96.4,294.6z"/>
	<path class="st3" d="M106.9,298.6l-2.7-1c-1.6-0.6-2.4-2.4-1.8-4l0.1-0.2c0.6-1.6,2.4-2.4,4-1.8l2.7,1c1.6,0.6,2.4,2.4,1.8,4
		l-0.1,0.2C110.3,298.4,108.5,299.2,106.9,298.6z"/>
	<path class="st3" d="M117,302.8l-2.7-1c-1.6-0.6-2.4-2.4-1.8-4l0.1-0.2c0.6-1.6,2.4-2.4,4-1.8l2.7,1c1.6,0.6,2.4,2.4,1.8,4L121,301
		C120.4,302.6,118.6,303.4,117,302.8z"/>
	<path class="st3" d="M127.4,307l-2.7-1c-1.6-0.6-2.4-2.4-1.8-4l0.1-0.2c0.6-1.6,2.4-2.4,4-1.8l2.7,1c1.6,0.6,2.4,2.4,1.8,4
		l-0.1,0.2C130.8,306.8,129,307.6,127.4,307z"/>
	<path class="st3" d="M137.5,311.2l-2.7-1c-1.6-0.6-2.4-2.4-1.8-4l0.1-0.2c0.6-1.6,2.4-2.4,4-1.8l2.7,1c1.6,0.6,2.4,2.4,1.8,4
		l-0.1,0.2C140.9,311.1,139.1,311.9,137.5,311.2z"/>
	<path class="st3" d="M82.7,299.1l-2.7-1c-1.6-0.6-2.4-2.4-1.8-4l0.1-0.2c0.6-1.6,2.4-2.4,4-1.8l2.7,1c1.6,0.6,2.4,2.4,1.8,4
		l-0.1,0.2C86.1,299,84.3,299.8,82.7,299.1z"/>
	<path class="st3" d="M92.8,303.4l-2.7-1c-1.6-0.6-2.4-2.4-1.8-4l0.1-0.2c0.6-1.6,2.4-2.4,4-1.8l2.7,1c1.6,0.6,2.4,2.4,1.8,4
		l-0.1,0.2C96.2,303.2,94.4,304,92.8,303.4z"/>
	<path class="st3" d="M103.3,307.3l-2.7-1c-1.6-0.6-2.4-2.4-1.8-4l0.1-0.2c0.6-1.6,2.4-2.4,4-1.8l2.7,1c1.6,0.6,2.4,2.4,1.8,4
		l-0.1,0.2C106.7,307.1,104.9,307.9,103.3,307.3z"/>
	<path class="st3" d="M113.4,311.5l-2.7-1c-1.6-0.6-2.4-2.4-1.8-4l0.1-0.2c0.6-1.6,2.4-2.4,4-1.8l2.7,1c1.6,0.6,2.4,2.4,1.8,4
		l-0.1,0.2C116.8,311.4,115,312.2,113.4,311.5z"/>
	<path class="st3" d="M123.8,315.7l-2.7-1c-1.6-0.6-2.4-2.4-1.8-4l0.1-0.2c0.6-1.6,2.4-2.4,4-1.8l2.7,1c1.6,0.6,2.4,2.4,1.8,4
		l-0.1,0.2C127.2,315.6,125.4,316.3,123.8,315.7z"/>
	<path class="st3" d="M133.9,320l-2.7-1c-1.6-0.6-2.4-2.4-1.8-4l0.1-0.2c0.6-1.6,2.4-2.4,4-1.8l2.7,1c1.6,0.6,2.4,2.4,1.8,4
		l-0.1,0.2C137.3,319.8,135.5,320.6,133.9,320z"/>
	<circle class="st13" cx="883.7" cy="272.3" r="43"/>
	<path d="M898.6,292.5c-1.2,1.8-3,3.3-5.2,4.3c-2.2,1.1-4.8,1.7-7.7,1.9v4.4c0,0.5-0.2,1-0.6,1.4c-0.4,0.4-0.9,0.6-1.5,0.6
		s-1-0.2-1.4-0.5c-0.4-0.4-0.6-0.8-0.6-1.4v-4.4c-4.5-0.3-8.7-1.3-12.8-3c-0.5-0.2-0.9-0.6-1.3-1.1c-0.4-0.5-0.5-1-0.5-1.6
		c0-0.8,0.3-1.4,0.8-1.9s1.1-0.8,1.9-0.8c0.5,0,0.9,0.1,1.2,0.3c3.4,1.5,7,2.4,10.7,2.5v-14.5c-2.9-0.8-5.3-1.6-7.2-2.5
		c-2.3-1-4-2.4-5.2-4.1s-1.8-3.7-1.8-5.9c0-2.2,0.5-4.3,1.7-6.2c1.1-1.9,2.8-3.5,5-4.7s4.7-1.9,7.6-2.2v-4.4c0-0.5,0.2-1,0.6-1.4
		c0.4-0.4,0.8-0.6,1.4-0.6c0.5,0,1,0.2,1.4,0.6c0.4,0.4,0.6,0.9,0.6,1.4v4.3c4.1,0.2,7.8,0.9,11,2.1c1.2,0.5,1.8,1.3,1.8,2.6
		c0,0.7-0.3,1.3-0.8,1.9s-1.1,0.9-1.8,0.9c-0.3,0-0.6-0.1-1-0.3c-2.8-1-5.9-1.6-9.2-1.7v15c2.9,0.7,5.4,1.5,7.6,2.3
		c2.2,0.9,3.9,2.3,5.2,4s1.9,3.9,1.9,6.5C900.4,288.6,899.8,290.6,898.6,292.5z"/>
	<path class="st13" d="M875.4,269.9c1.3,1,3.4,1.9,6.3,2.7v-13.8c-2.6,0.4-4.7,1.2-6.1,2.4c-1.4,1.2-2.2,2.8-2.2,4.6
		C873.4,267.5,874.1,268.9,875.4,269.9z"/>
	<path class="st13" d="M894.5,286c0-1.5-0.7-2.8-2.1-3.7c-1.4-0.9-3.6-1.8-6.8-2.7v13.5C891.6,292.7,894.5,290.3,894.5,286z"/>
</g>
<g id="skeleton_1_" class="st14">
	<circle id="rightShoulder" class="st15" cx="392.8" cy="294.3" r="8.2"/>
	<circle id="rightElbow" class="st15" cx="289.3" cy="294.4" r="8.2"/>
	
		<ellipse id="rightWrist" transform="matrix(0.9231 -0.3846 0.3846 0.9231 -106.0086 71.567)" class="st15" cx="125.9" cy="300.8" rx="8.2" ry="8.2"/>
	<circle id="rightHip" class="st15" cx="443.1" cy="510.1" r="8.2"/>
	<circle id="rightKnee" class="st15" cx="449.5" cy="670.3" r="8.2"/>
	<circle id="rightAnkle" class="st15" cx="449.5" cy="878.3" r="8.2"/>
	<circle id="leftShoulder" class="st15" cx="605.7" cy="294.3" r="8.2"/>
	<circle id="leftElbow" class="st15" cx="710.1" cy="294" r="8.2"/>
	<circle id="leftWrist" class="st15" cx="873.5" cy="300.3" r="8.2"/>
	<circle id="leftHip" class="st15" cx="559.5" cy="509.3" r="8.2"/>
	<circle id="leftKnee" class="st15" cx="559.5" cy="670.3" r="8.2"/>
	<circle id="leftAnkle" class="st15" cx="559.5" cy="878.3" r="8.2"/>
	<polygon class="st16" points="392.7,294.6 443,510.4 559.4,509.6 605.6,294.6 	"/>
	<polyline class="st16" points="391.7,294.6 289,294.6 125.7,300.9 	"/>
	<polyline class="st16" points="607.1,294.2 710.3,294.2 873.6,300.6 	"/>
	<polyline class="st16" points="443,510.4 449.4,670.6 449.4,878.6 	"/>
	<polyline class="st16" points="559.4,509.6 559.4,670.6 559.4,878.6 	"/>
	<circle id="rightEye0" class="st15" cx="468.6" cy="160.2" r="0.8"/>
	<circle id="rightBrow1" class="st15" cx="466.4" cy="148.3" r="0.8"/>
	<circle id="rightBrow4" class="st15" cx="489.7" cy="151.3" r="0.8"/>
	<circle id="nose1" class="st15" cx="497.6" cy="161.2" r="0.8"/>
	<circle id="rightBrow3" class="st15" cx="479.9" cy="147.3" r="0.8"/>
	<circle id="rightEye1" class="st15" cx="473.8" cy="156.5" r="0.8"/>
	<circle id="rightBrow0" class="st15" cx="462.4" cy="152" r="0.8"/>
	<circle id="rightBrow2" class="st15" cx="472.6" cy="147.3" r="0.8"/>
	<circle id="rightEye5" class="st15" cx="473.8" cy="162.5" r="0.8"/>
	<circle id="rightEye2" class="st15" cx="480.1" cy="156.5" r="0.8"/>
	<circle id="rightEye3" class="st15" cx="485.3" cy="160.7" r="0.8"/>
	<circle id="nose0" class="st15" cx="497.6" cy="155.4" r="0.8"/>
	<circle id="nose3" class="st15" cx="497.6" cy="173.8" r="0.8"/>
	<circle id="rightNose0" class="st15" cx="486.9" cy="178.3" r="0.8"/>
	<circle id="rightMouthCorner" class="st15" cx="480.9" cy="200.4" r="0.8"/>
	<circle id="rightNose1" class="st15" cx="492.1" cy="178.3" r="0.8"/>
	<circle id="rightUpperLipTop0" class="st15" cx="487.8" cy="197" r="0.8"/>
	<circle id="nose2" class="st15" cx="497.6" cy="166.7" r="0.8"/>
	<circle id="nose4" class="st15" cx="497.6" cy="179.1" r="0.8"/>
	<circle id="upperLipTopMid" class="st15" cx="498.4" cy="196.8" r="0.8"/>
	<circle id="rightUpperLipTop1" class="st15" cx="494.3" cy="195.9" r="0.8"/>
	<path id="rightMiddleLip" class="st15" d="M484.5,199.9c0.4,0,0.8,0.4,0.8,0.8c0,0.4-0.4,0.8-0.8,0.8s-0.8-0.4-0.8-0.8
		S484.1,199.9,484.5,199.9z"/>
	<circle id="lowerLipBottomMid" class="st15" cx="498.4" cy="210" r="0.8"/>
	<circle id="upperLipBottomMid" class="st15" cx="498.4" cy="200.4" r="0.8"/>
	<circle id="lowerLipTopMid" class="st15" cx="498.4" cy="203.5" r="0.8"/>
	<circle id="rightUpperLipBottom1" class="st15" cx="494.5" cy="199.9" r="0.8"/>
	<circle id="rightLowerLipTop0" class="st15" cx="494.5" cy="202.8" r="0.8"/>
	<circle id="rightLowerLipBottom1" class="st15" cx="494.3" cy="209.5" r="0.8"/>
	<circle id="rightLowerLipBottom0" class="st15" cx="487.3" cy="206.7" r="0.8"/>
	<circle id="rightEye4" class="st15" cx="480.1" cy="161.7" r="0.8"/>
	<circle id="jawMid" class="st15" cx="498.4" cy="235.8" r="0.8"/>
	<circle id="rightJaw7" class="st15" cx="483.4" cy="232.6" r="0.8"/>
	<circle id="rightJaw6" class="st15" cx="473.4" cy="225.9" r="0.8"/>
	<circle id="rightJaw5" class="st15" cx="461.8" cy="213.4" r="0.8"/>
	<circle id="rightJaw4" class="st15" cx="455" cy="193.4" r="0.8"/>
	<circle id="rightJaw3" class="st15" cx="454.2" cy="171.7" r="0.8"/>
	<circle id="rightJaw2" class="st15" cx="454.2" cy="162.2" r="0.8"/>
	<circle id="rightJaw1" class="st15" cx="455" cy="150.5" r="0.8"/>
	<circle id="rightJaw0" class="st15" cx="457.5" cy="141.2" r="0.8"/>
	<circle id="topMid" class="st15" cx="498.6" cy="115.1" r="0.8"/>
	<circle id="leftTop0" class="st15" cx="518.3" cy="117.6" r="0.8"/>
	<circle id="leftTop1" class="st15" cx="530.9" cy="127.1" r="0.8"/>
	<circle id="leftEye0" class="st15" cx="528.2" cy="160.2" r="0.8"/>
	<circle id="leftBrow1" class="st15" cx="530.1" cy="148.7" r="0.8"/>
	<circle id="leftBrow4" class="st15" cx="506.5" cy="150.8" r="0.8"/>
	<circle id="leftBrow3" class="st15" cx="516.5" cy="147.6" r="0.8"/>
	<circle id="leftEye1" class="st15" cx="523" cy="156.5" r="0.8"/>
	<circle id="leftBrow0" class="st15" cx="534.1" cy="151.6" r="0.8"/>
	<circle id="leftBrow2" class="st15" cx="523.8" cy="147.2" r="0.8"/>
	<circle id="leftEye5" class="st15" cx="523" cy="162.5" r="0.8"/>
	<circle id="leftEye2" class="st15" cx="516.7" cy="156.5" r="0.8"/>
	<circle id="leftEye3" class="st15" cx="511.5" cy="160.7" r="0.8"/>
	<circle id="leftNose0" class="st15" cx="508" cy="178.3" r="0.8"/>
	<circle id="leftMouthCorner" class="st15" cx="515.9" cy="200.4" r="0.8"/>
	<circle id="leftNose1" class="st15" cx="503.2" cy="178.3" r="0.8"/>
	<circle id="leftUpperLipTop0" class="st15" cx="509" cy="197" r="0.8"/>
	<circle id="leftUpperLipTop1" class="st15" cx="502.6" cy="195.9" r="0.8"/>
	<path id="leftMiddleLip" class="st15" d="M512.3,199.9c0.4,0,0.8,0.4,0.8,0.8c0,0.4-0.4,0.8-0.8,0.8c-0.4,0-0.8-0.4-0.8-0.8
		S511.9,199.9,512.3,199.9z"/>
	<circle id="leftUpperLipBottom1" class="st15" cx="502.4" cy="199.9" r="0.8"/>
	<circle id="leftLowerLipTop0" class="st15" cx="502.4" cy="202.8" r="0.8"/>
	<circle id="leftLowerLipBottom1" class="st15" cx="502.6" cy="209.5" r="0.8"/>
	<circle id="leftLowerLipBottom0" class="st15" cx="509.5" cy="206.7" r="0.8"/>
	<circle id="leftEye4" class="st15" cx="516.7" cy="161.7" r="0.8"/>
	<circle id="leftJaw7" class="st15" cx="513.2" cy="233" r="0.8"/>
	<circle id="leftJaw6" class="st15" cx="523.2" cy="226.3" r="0.8"/>
	<circle id="leftJaw5" class="st15" cx="534.8" cy="213.7" r="0.8"/>
	<circle id="leftJaw4" class="st15" cx="541.6" cy="193.7" r="0.8"/>
	<circle id="leftJaw3" class="st15" cx="542.4" cy="172.1" r="0.8"/>
	<circle id="leftJaw2" class="st15" cx="542.4" cy="162.5" r="0.8"/>
	<circle id="leftJaw1" class="st15" cx="541.6" cy="150.8" r="0.8"/>
	<circle id="leftJaw0" class="st15" cx="539.1" cy="141.6" r="0.8"/>
	<polyline class="st16" points="498.4,115.1 478.6,117.6 466.1,127.1 457.5,141.2 455,150.5 454.2,162.2 454.2,171.7 455,193.4 
		461.8,213.4 473.4,225.9 483.4,232.6 498.4,235.8 513.2,233 523.2,226.3 534.8,213.7 541.6,193.7 542.4,172.1 542.4,162.5 
		541.6,150.8 539.1,141.6 530.9,127.1 518.3,117.6 498.4,115.1 	"/>
	<polyline class="st16" points="462.4,152 466.4,148.3 472.6,147.3 479.9,147.3 489.7,151.3 	"/>
	<polygon class="st16" points="468.6,160.2 473.8,156.5 480.1,156.5 485.3,160.7 480.1,161.7 473.8,162.5 	"/>
	<polyline class="st16" points="486.9,178.3 492.1,178.3 497.6,179.1 497.6,173.8 497.6,166.7 497.6,161.2 497.6,155.4 	"/>
	<polyline class="st16" points="533.9,151.6 529.9,148.7 523.6,147.2 516.3,147.6 506.3,150.8 	"/>
	<polygon class="st16" points="528,160.2 522.7,156.5 516.4,156.5 511.3,160.7 516.4,161.7 522.7,162.5 	"/>
	<polyline class="st16" points="508,178.3 503,178.3 497.6,179.1 	"/>
	<polygon class="st16" points="480.9,200.4 487.8,197 494.3,195.9 498.4,196.8 502.6,195.9 509,197 515.9,200.4 509.5,206.7 
		502.4,209.5 498.4,210 494.3,209.5 487.3,206.7 	"/>
	<polyline class="st16" points="480.9,200.4 484.5,200.7 494.5,199.9 498.4,200.4 502.4,199.9 512.3,200.7 515.9,200.4 	"/>
	<polyline class="st16" points="480.9,200.4 484.5,200.7 494.5,202.8 498.4,203.6 502.4,202.8 512.3,200.7 515.9,200.4 	"/>
	<circle id="rightTop0" class="st15" cx="478.7" cy="117.6" r="0.8"/>
	<circle id="rightTop1" class="st15" cx="466.1" cy="127.1" r="0.8"/>
</g>
</svg>
